<svg width="56" height="56" viewBox="0 0 56 56" fill="none" xmlns="http://www.w3.org/2000/svg">
<path d="M40.5 3H15.5C8.59644 3 3 8.59644 3 15.5V40.5C3 47.4036 8.59644 53 15.5 53H40.5C47.4036 53 53 47.4036 53 40.5V15.5C53 8.59644 47.4036 3 40.5 3Z" stroke="black" stroke-width="6" stroke-linecap="round" stroke-linejoin="round"/>
<path d="M38.2374 26.1146C38.5433 28.1773 38.191 30.2839 37.2306 32.1348C36.2702 33.9857 34.7506 35.4867 32.888 36.4242C31.0254 37.3617 28.9146 37.688 26.8559 37.3567C24.7971 37.0254 22.8953 36.0534 21.4208 34.5789C19.9463 33.1044 18.9743 31.2026 18.643 29.1438C18.3117 27.0851 18.638 24.9743 19.5755 23.1117C20.513 21.2491 22.014 19.7295 23.8649 18.7691C25.7158 17.8087 27.8224 17.4564 29.8851 17.7623C31.9891 18.0743 33.937 19.0547 35.441 20.5587C36.945 22.0627 37.9254 24.0106 38.2374 26.1146Z" stroke="black" stroke-width="6" stroke-linecap="round" stroke-linejoin="round"/>
</svg>
