<svg width="65" height="54" viewBox="0 0 65 54" fill="none" xmlns="http://www.w3.org/2000/svg">
<path d="M62.6383 2.02802C59.9988 3.91024 57.0764 5.34983 53.9836 6.29136C52.3236 4.36174 50.1174 2.99408 47.6635 2.37334C45.2096 1.7526 42.6263 1.90875 40.263 2.82065C37.8997 3.73255 35.8705 5.35622 34.4497 7.47204C33.029 9.58787 32.2852 12.0938 32.3192 14.6508V17.4373C27.4753 17.5643 22.6757 16.4783 18.3476 14.2759C14.0195 12.0736 10.2973 8.82327 7.51257 4.81452C7.51257 4.81452 -3.51257 29.893 21.294 41.039C15.6175 44.9344 8.85532 46.8876 2 46.612C26.8066 60.5444 57.1257 46.612 57.1257 14.5673C57.1232 13.7911 57.0494 13.0168 56.9052 12.2545C59.7183 9.44983 61.7034 5.90881 62.6383 2.02802V2.02802Z" stroke="black" stroke-width="4" stroke-linecap="round" stroke-linejoin="round"/>
</svg>
